<?xml version="1.0" encoding="UTF-8"?>
<svg id="Layer_1" data-name="Layer 1" xmlns="http://www.w3.org/2000/svg" viewBox="0 0 32 32">
  <path d="M28.59,5.31c-.42-.82-1.08-1.49-1.9-1.9-.93-.47-2.15-.47-4.59-.47h-12.2c-2.44,0-3.66,0-4.59.47-.82.42-1.49,1.08-1.9,1.9-.47.93-.47,2.15-.47,4.59v12.2c0,2.44,0,3.66.47,4.59.42.82,1.08,1.49,1.9,1.9.93.47,2.15.47,4.59.47h12.2c2.44,0,3.66,0,4.59-.47.82-.42,1.49-1.08,1.9-1.9.47-.93.47-2.15.47-4.59v-12.2c0-2.44,0-3.66-.47-4.59ZM23.03,13.08l-7.94,7.94c-.27.29-.66.47-1.09.47-.36,0-.68-.13-.94-.34h0s-.08-.07-.08-.07c-.02-.02-.05-.05-.07-.07l-3.93-3.93c-.29-.27-.48-.66-.48-1.09,0-.83.67-1.5,1.5-1.5.41,0,.79.17,1.06.44h0s2.94,2.94,2.94,2.94l6.92-6.92c.27-.28.65-.46,1.08-.46.83,0,1.5.67,1.5,1.5,0,.43-.18.81-.47,1.09Z"/>
</svg>