<?xml version="1.0" encoding="UTF-8"?>
<svg id="Layer_1" data-name="Layer 1" xmlns="http://www.w3.org/2000/svg" viewBox="0 0 32 32">
  <defs>
    <style>
      .cls-1 {
        fill: none;
        stroke: #000;
        stroke-linecap: round;
        stroke-linejoin: round;
        stroke-width: 2px;
      }
    </style>
  </defs>
  <path class="cls-1" d="M14.59,5.41h-5.6c-2.24,0-3.36,0-4.22.44-.75.38-1.36,1-1.75,1.75-.44.86-.44,1.98-.44,4.22v11.2c0,2.24,0,3.36.44,4.22.38.75,1,1.36,1.75,1.75.86.44,1.98.44,4.22.44h11.2c2.24,0,3.36,0,4.22-.44.75-.38,1.36-1,1.75-1.75.44-.86.44-1.98.44-4.22v-5.6M10.59,21.41h2.23c.65,0,.98,0,1.29-.07.27-.07.53-.17.77-.32.27-.16.5-.4.96-.86l12.75-12.75c1.1-1.1,1.1-2.9,0-4-1.1-1.1-2.9-1.1-4,0l-12.75,12.75c-.46.46-.69.69-.86.96-.15.24-.25.5-.32.77-.07.31-.07.63-.07,1.29v2.23Z"/>
</svg>