<?xml version="1.0" encoding="UTF-8"?>
<svg id="Layer_1" data-name="Layer 1" xmlns="http://www.w3.org/2000/svg" viewBox="0 0 32 32">
  <path d="M29.8,17.09h-3.61V5.53c0-.61-.49-1.1-1.1-1.1h-7.55c-.46,0-.87.28-1.03.71l-4.6,11.96h-1.46s-.05,0-.08,0V4.43h-1.26v12.67h-.92v7.92h-.97v-.85h-1.28v-.46h1.28v-.86h-1.28v-.46h1.28v-.86h-1.28v-.46h1.28v-.86h-1.28v-.46h1.28v-.86h-1.28v-.46h1.28v-.86h-1.28v-.46h1.28v-.86h-1.28v-.46h1.28v-.86h-1.28v-.46h1.28v-.86h-1.28v-.46h1.28v-.86h-1.28v-.46h1.28v-.86h-1.28v-.46h1.28v-.86h-1.28v-.46h1.28v-.86h-1.28v-.46h1.28v-.86H1.16v.86h1.36v.46h-1.36v.86h1.36v.46h-1.36v.86h1.36v.46h-1.36v.86h1.36v.46h-1.36v.86h1.36v.46h-1.36v.86h1.36v.46h-1.36v.86h1.36v.46h-1.36v.86h1.36v.46h-1.36v.86h1.36v.46h-1.36v.86h1.36v.46h-1.36v.86h1.36v.46h-1.36v.86h1.36v.46h-1.36v.86h1.36v.46h-1.36v.86h.7v.37l6.33.88h1.26v-.65h.64c.52,1.18,1.7,2,3.07,2s2.55-.82,3.07-2h.58v.65h6.83v-.65h.97c.32,1.15,1.38,2,2.63,2,1.51,0,2.73-1.22,2.73-2.73,0-1.1-.65-2.05-1.59-2.48v-1.11h1.43c.61,0,1.1-.49,1.1-1.1v-2.01c0-.61-.49-1.1-1.1-1.1ZM3.38,7.89h1.7v.46h-1.7v-.46ZM3.38,9.2h1.7v.46h-1.7v-.46ZM3.38,10.52h1.7v.46h-1.7v-.46ZM3.38,11.84h1.7v.46h-1.7v-.46ZM3.38,13.16h1.7v.46h-1.7v-.46ZM3.38,14.48h1.7v.46h-1.7v-.46ZM3.38,15.8h1.7v.46h-1.7v-.46ZM3.38,17.11h1.7v.46h-1.7v-.46ZM3.38,18.43h1.7v.46h-1.7v-.46ZM3.38,19.75h1.7v.46h-1.7v-.46ZM3.38,21.07h1.7v.46h-1.7v-.46ZM3.38,22.39h1.7v.46h-1.7v-.46ZM3.38,23.71h1.7v.46h-1.7v-.46ZM13.15,25.78c-.83,0-1.51-.68-1.51-1.51s.68-1.51,1.51-1.51,1.51.68,1.51,1.51-.68,1.51-1.51,1.51ZM19.72,15.37c-.38.39-1.01.46-1.44.77-.27.19-.54.38-.85.49-.51.23-.78.57-.93.97l-1.05-1.05,1.8-1.8.66.66c.1.1.26.1.36,0s.1-.26,0-.36l-.66-.66.07-.07c.12-.08.22-.16.39-.19.05-.01.11-.02.15-.01.13.02.73.11,1.25.13.17.01.32-.02.44.05.23.15-.05.92-.19,1.08ZM25.02,17.09h-.82l.51-3.79c.06-.42-.24-.8-.65-.86-.3-.04-.59.1-.74.35-.33-1.36-1.58-1.37-.9-2.67.11-.32.01-.72-.22-.96-.37-.35-1.27-.47-1.61-.01-.1.13-.15.3-.18.47-.09.37-.25.74-.13,1.12.09.39.65.51.56.96,0,.08-.03.15-.07.2-.05.06-.14.09-.21.13-.18.11-.28.24-.41.43-.22.3-.44.66-.8.76-.17.06-.76.13-1.14.15-.33.02-.71.03-1.02.17-.13.06-.18.12-.23.18l-.46-.46c-.1-.1-.26-.1-.36,0h0c-.1.1-.1.26,0,.36l.64.64c.02.06.05.11.08.15l-1.76,1.76-1.12-1.12,3.64-9.45h7.42v11.49ZM27.23,25.89c-.55,0-1-.45-1-1s.45-1,1-1,1,.45,1,1-.45,1-1,1Z"/>
</svg>