<?xml version="1.0" encoding="UTF-8"?>
<svg id="Layer_1" data-name="Layer 1" xmlns="http://www.w3.org/2000/svg" viewBox="0 0 32 32">
  <path d="M2.44,16.45s-.06.05-.06.07c-.04.09,0,.56.02.69.05.56.16,1.12.26,1.67l-.89-.16c-.09-.56-.2-1.14-.24-1.7C.84,7.7,9.4.3,18.53,2.23c.11.02.83.18.83.23-.35.45-.58.98-.71,1.54-.05.04-.33-.23-.39-.27-.55-.4-1.25-.77-1.93-.88-.06-.01-.3-.07-.3.04v6.61c.19.05.4.04.6.03.3,0,.66-.04.97-.07.75-.06,1.49-.19,2.23-.29.15.02.39.6.5.73-.02.04-.05.04-.08.05-.86.28-2.59.37-3.52.42-.22.01-.52-.07-.7.08v2.49c.04.07.19,0,.26-.03.71-.29,1.46-.71,2.18-1.02.83-.36,1.66-.7,2.5-1.02.15-.02.25.18.36.27.13.11.29.21.42.32-1.93.75-3.84,1.56-5.68,2.5-.04.03-.04.07-.05.11-.03.25-.03,1.14,0,1.39,0,.04.04.14.08.14h6.6c.06-.05.07-.1.08-.18.02-.17-.02-.67-.03-.87-.03-.53-.1-1.12-.17-1.65-.05-.38-.15-.77-.18-1.15l.77-.02.08.08c.23,1.23.32,2.49.36,3.74,0,.02.07.05.08.05h5.08s.04-.06.05-.11c.02-.2-.02-.51-.03-.71-.12-1.37-.5-2.82-1.06-4.08-.06-.14-.23-.57-.31-.66-.04-.04-.09-.07-.16-.06l-2.28.45.69-1,1.21-.26c.07-.09-.54-.83-.58-.99l.32-.86c.06-.05.31.32.35.38.32.43.58.9.89,1.34.12.07.99.02,1.23.03.66.05,1.49.31,1.87.88.88,1.32-.58,3.07-1.39,4.06-.04.23.04.47.06.7.34,4.82-1.42,9.27-5.19,12.3-5.34,4.31-13.13,4.12-18.24-.44-1.26.09-3.72.41-4.33-1.07-.41-1.01.33-2.28.97-3.03.07-.01.87.44,1.07.47.12.02.24-.02.35.04.07.04.48.7.58.84.05.07.29.41.35.41.69-.38,1.39-.73,2.12-1.04.27-.11.89-.28,1.08-.41.09-.06.07-.13.13-.19.05-.05.17-.11.23-.16.15-.15.27-.28.39-.45.12.15.06.51.29.49.97-.25,1.95-.45,2.95-.58.91-.12,1.82-.15,2.74-.23l.06-.18c-.09-1.56.12-3.25,0-4.79,0-.07-.02-.24-.11-.24h-1.83c.05-.16.24-.24.36-.37.1-.1.29-.4.4-.45.19-.08,1.04.04,1.14-.06.07-.07.07-.96.01-1.05-.03-.05-.04-.05-.09-.04-.08.02-.66.37-.68.34.01-.31.04-.59-.06-.89.02-.13.83-.36.86-.59-.05-.88.09-1.88,0-2.74,0-.08,0-.16-.09-.21-.1-.06-1.02-.05-1.23-.07-1.52-.11-3.02-.37-4.49-.75-.05,0-.06.02-.08.06-.05.09-.12.4-.16.52-.4,1.42-.63,3.08-.72,4.55-.01.2.05.64-.05.79-.04.05-.5.4-.56.41-.92.15-1.93.09-2.84.24-.2.03-.76.29-.81.29h-1.75ZM15.16,2.84c-.07-.08-.52.05-.63.08-2.14.6-3.71,2.93-4.54,4.87-.08.18-.32.71-.34.86-.01.1.06.12.14.15.32.12.88.22,1.23.29,1.11.22,2.35.39,3.48.43.11,0,.6.02.65-.03V2.84ZM11.92,3.3c-.21.02-.66.2-.88.28-1.98.72-3.83,1.97-5.22,3.54,0,.1.33.26.43.31.59.33,1.68.85,2.32,1.01.07.02.15.04.22,0,.06-.03.23-.55.28-.66.71-1.67,1.61-3.23,2.99-4.45-.04-.06-.07-.05-.14-.04ZM2.44,15.61h5.08c.14-.24.06-.58.08-.86.04-.84.14-1.68.27-2.52.15-.97.38-1.93.64-2.88-.01-.05-.11-.08-.16-.1-.73-.34-1.49-.56-2.23-.94-.3-.15-.58-.35-.89-.47-.09,0-.42.5-.5.61-1.34,1.89-2.28,4.49-2.37,6.82,0,.09-.02.31.08.34ZM29.36,12.86c.06.05.34-.35.38-.41.33-.47.92-1.47.54-2.01-.34-.49-1.34-.54-1.89-.52-.03.05-.02.09,0,.14.08.28.3.68.42.98.22.59.4,1.2.56,1.82ZM22.76,16.49h-6.69s0,5.15,0,5.15l.08.04c1.31.04,2.61.16,3.9.4.49.09,1.19.33,1.63.37.25.02.22-.09.29-.29.5-1.46.77-3.73.82-5.29,0-.09.02-.34-.04-.4ZM23.76,16.46c-.14.01-.14.21-.15.33-.02.24.02.5,0,.74-.08,1.35-.3,2.74-.61,4.05-.04.17-.31,1.03-.29,1.12.02.1.76.33.91.38.83.33,1.61.73,2.4,1.15,1.55-1.95,2.57-4.41,2.8-6.9.02-.16.07-.68.03-.8-.01-.03-.04-.05-.07-.06l-5.01-.02ZM15.16,22.57c-.17-.1-.38-.02-.56,0-1.49.07-3,.22-4.44.6-.1.03-.52.11-.52.22,0,.08.35.9.41,1.04.84,1.89,2.38,4.15,4.49,4.72.12.03.52.16.61.07l.05-.18c-.1-2.04.13-4.21,0-6.24,0-.08,0-.16-.04-.23ZM16.04,22.61v6.6s.04.04.05.04c.16.05.91-.2,1.1-.28,2.18-.92,3.61-3.46,4.37-5.59,0-.03-.01-.05-.03-.07-.07-.09-1.37-.35-1.58-.39-1.12-.21-2.24-.32-3.38-.37-.11,0-.49-.11-.53.05ZM3.39,23.21c-.36.38-.83,1.26-.76,1.79.08.63,1.02.8,1.53.83.16.01,1.07.02,1.14-.06.04-.07-.03-.14-.07-.19-.18-.26-.49-.55-.7-.81-.22-.28-.44-.58-.64-.88-.09-.13-.31-.56-.4-.64-.03-.03-.05-.05-.09-.03ZM12.03,28.77s-.02-.09-.05-.13c-.15-.18-.42-.38-.6-.57-1.18-1.28-1.95-2.86-2.59-4.46-.06-.03-.11-.01-.16,0-.56.1-1.8.72-2.33,1-.08.04-.45.24-.47.28-.04.08.08.2.13.26,1.17,1.42,3.66,2.89,5.4,3.46.09.03.62.2.66.16ZM19.18,28.77s.48-.1.57-.13c1.6-.49,3.31-1.5,4.58-2.6.15-.13,1.05-.96,1.06-1.07,0-.03,0-.05-.01-.07-.79-.47-1.68-.91-2.56-1.2-.1-.03-.32-.13-.41-.08-.61,1.59-1.39,3.17-2.55,4.43-.18.2-.47.41-.63.6-.03.04-.06.08-.05.13Z"/>
  <path d="M7.47,22.04c-.06-.04-.03-.69-.03-.82-.01-.33,0-.7-.03-1.03,0-.06-.01-.17-.07-.19-.12-.05-.55.38-.67.48-.65.49-1.5,1.03-2.24,1.38-.3.15-.32.08-.62-.04-1.02-.44-2.04-.99-3.03-1.5-.31-.38.37-.53.63-.63.77.06,1.6.35,2.36.41.15.01.22,0,.36-.06.26-.1,1.72-1.21,1.95-1.44.07-.06.13-.11.08-.21-.06-.12-1.47-.59-1.68-.71-.21-.17.24-.38.37-.43.53-.21,1.7-.19,2.31-.24.5-.04.89-.02,1.32-.3.96-.63,1.86-1.46,2.81-2.11.42-.29.9-.46,1.41-.53.24-.04.56-.04.67.22.19.42-.4,1.04-.69,1.31-1,.92-2.17,1.72-3.15,2.67-.51.98-.75,2.25-1.24,3.22-.07.14-.15.18-.27.28-.08.06-.46.33-.54.28Z"/>
  <path d="M22.56,1.88c1.4-.11,2.96.68,3.41,2.07.51,1.58-.56,4.01-1.43,5.35-.72,1.1-1.59,2.12-2.77.82-1.04-1.14-2.3-3.87-2.18-5.42s1.41-2.7,2.97-2.82ZM25.18,5.1c0-1.28-1.04-2.33-2.33-2.33s-2.33,1.04-2.33,2.33,1.04,2.33,2.33,2.33,2.33-1.04,2.33-2.33Z"/>
</svg>