<?xml version="1.0" encoding="UTF-8"?>
<svg id="Layer_1" data-name="Layer 1" xmlns="http://www.w3.org/2000/svg" viewBox="0 0 32 32">
  <path d="M8.27,9.37c.12,0,.54.26.7.33.64.28,1.16.3,1.81.45.17.04.36.06.28.28-.07.18-.34.5-.46.69-.33.52-.73,1.13-.97,1.69-.92,2.2,1.35,2.16,2.73,1.44.93-.48,1.31-1.13,2.03-1.78,1.02-.92,2.01-.16,2.99.38,2.39,1.32,4.86,3.03,6.97,4.76.6.49,1.62,1.13,1.13,2.04s-1.35.44-1.98.09c-1.38-.77-2.68-1.73-4.11-2.4-.68-.04-.49.42-.11.72.95.74,2.36,1.38,3.4,2.06.54.36,1.02.65.62,1.38-.36.65-1.12.59-1.7.31-1.1-.53-2.16-1.36-3.26-1.9-.2-.1-.5-.26-.69-.05s-.01.46.17.6c.94.6,1.94,1.11,2.89,1.69.46.28.89.45.57,1.09-.37.75-1.18.61-1.82.35-.82-.34-1.63-.86-2.45-1.19-.24-.1-.73-.26-.79.13-.04.26.24.42.43.53.69.4,1.58.67,2.24,1.1.32.21.2.39-.04.62-.56.52-1.25.53-1.96.41-.47-.08-1.14-.23-1.58-.37-.57-.18-.15-.47-.03-.88.23-.75-.09-1.59-.75-2.02-.3-.19-.88-.28-1-.62s-.1-.62-.33-.98c-.31-.47-.75-.53-1.17-.82s-.32-.62-.46-1.02c-.33-.93-1.6-1.51-2.47-.95-.2.12-.54.59-.71.57-.1-.01-.36-.43-.46-.53-.42-.43-1.12-.64-1.71-.45-.19.06-.46.27-.62.29-.22.03-.41-.26-.54-.41-.28-.33-.7-.76-.51-1.21,1.15-1.98,2.17-4.13,3.37-6.07.08-.13.19-.36.37-.37Z"/>
  <path d="M17.1,8.76c.98-.04,1.96.07,2.91.27.82.17,1.72.5,2.57.46.32-.02.73-.17,1.01-.17.26,0,.34.19.46.38,1.2,1.91,2.18,4.04,3.37,5.97.27.44-.12.65-.41.92-.25.22-1.01.92-1.3.96-.33.04-.82-.38-1.1-.58-2.78-1.93-5.48-4.2-8.61-5.58-.53-.23-.84-.12-1.36.08-.98.38-1.08.88-1.79,1.52-.55.5-1.38.97-2.14.99-.37.01-.69-.03-.61-.47.12-.67,1.45-2.49,1.91-3.11.58-.78.64-1.05,1.67-1.23s2.34-.36,3.41-.4Z"/>
  <path d="M5.84,6.47c.06-.02.09,0,.15,0,.25.03,1.48.81,1.76,1,.18.12.44.26.38.51-1.56,2.86-3.17,5.71-4.83,8.52-.12.12-.22.13-.39.09-.2-.04-1.64-.91-1.85-1.08-.15-.12-.26-.24-.19-.45,1.49-2.63,2.91-5.32,4.46-7.91.1-.16.33-.63.5-.68Z"/>
  <path d="M26,6.47c.25-.04.31.11.44.29,1.43,2.64,3.06,5.19,4.46,7.84.19.36.41.6.03.91-.2.16-1.66,1.05-1.84,1.09-.27.06-.35-.06-.51-.25-1.4-2.64-3.09-5.2-4.46-7.84-.14-.27-.38-.6-.11-.86.21-.21,1.4-.89,1.71-1.05.08-.04.2-.11.28-.12Z"/>
  <path d="M9.82,18.06c.43-.05.92.32,1.06.71.17.48,0,.76-.25,1.15-.45.69-1.18,1.72-1.71,2.33-.31.36-.56.52-1.05.34-.28-.1-.51-.32-.62-.59-.21-.48-.07-.72.19-1.12.46-.69,1.27-1.87,1.81-2.47.15-.16.34-.32.56-.35Z"/>
  <path d="M11.57,20.22c.8-.14,1.43.78,1.08,1.52-.18.37-1.31,1.9-1.61,2.2-.73.71-1.92-.19-1.58-1.14.14-.38,1.49-2.19,1.82-2.43.08-.06.19-.13.29-.15Z"/>
  <path d="M13.39,22.34c.67-.14,1.29.56,1.18,1.21-.06.38-1.04,1.78-1.38,1.92-.69.29-1.48-.44-1.36-1.16.05-.31.62-1.05.84-1.32.17-.22.44-.59.73-.65Z"/>
  <path d="M6.58,17.83c.66-.11,1.27.54,1.19,1.19-.05.4-.79,1.38-1.18,1.48-.7.17-1.33-.48-1.24-1.17.06-.44.78-1.42,1.24-1.49Z"/>
</svg>