<?xml version="1.0" encoding="UTF-8"?>
<svg id="Layer_1" data-name="Layer 1" xmlns="http://www.w3.org/2000/svg" viewBox="0 0 32 32">
  <path d="M7,2.02c.12-.02.23.06.31.13l9.24,9.24c.19.19.43.2.63.02l7.66-7.67c.82-.83,1.86-1.12,3-.83,1.96.5,2.78,3.05,1.48,4.59-.84,1-1.99,2.01-2.92,2.96-5.71,5.81-11.51,11.54-17.26,17.3-.74.74-1.12,1.3-2.17,1.66s-2.54.73-3.6.95c-.68.14-1.09.06-1.01-.75.41-1.51.71-3.08,1.27-4.54,2.34-2.56,4.94-4.91,7.32-7.44.14-.21.13-.31-.02-.51-.18-.25-.7-.73-.95-.99-2.73-2.83-5.61-5.53-8.35-8.35-.13-.12-.15-.25-.05-.4.11-.18.66-.7.85-.89,1.4-1.46,2.9-2.85,4.31-4.31.06-.05.2-.17.28-.18ZM6.84,3.65c-.1.02-.2.15-.29.2-.93,1.09-2,2.06-2.94,3.13-.29.33-.57.58-.17.97l8.42,8.39c.23.2.43.07.63-.09.93-.77,1.81-1.89,2.69-2.74.25-.39-.47-.58-.47-.89,0-.24.45-.43.46-.72.01-.26-.56-.83-.82-.82-.28.01-.79.68-1.02.88-.28.23-.38.19-.65-.04-.24-.2-.49-.46-.27-.76.21-.28.95-.78.93-1.12,0-.2-.57-.79-.75-.82-.41-.06-.52.53-.9.45-.08-.02-.56-.48-.61-.56-.26-.41.52-.6.38-1.02-.03-.09-.37-.46-.46-.53-.21-.16-.31-.21-.55-.05-.28.19-.74.86-1.03.95-.31.09-.93-.5-.87-.79.05-.26.97-.86,1.05-1.19.06-.28-.31-.62-.52-.79-.56-.45-.7.36-1.05.26-.08-.02-.57-.49-.62-.56-.27-.47.71-.56.25-1.16-.15-.2-.56-.62-.83-.56ZM25.36,5.1c-.06,0-.13.04-.18.09-6.79,6.83-13.7,13.52-20.37,20.45-.16.15,0,.36.11.49.29.37,1.32,1.4,1.69,1.69.15.12.32.23.51.13L27.5,7.61c.19-.25.19-.36,0-.61-.25-.34-1.4-1.47-1.74-1.75-.12-.1-.22-.19-.39-.16Z"/>
  <path d="M21.38,16.4c.12-.02.25.07.33.15l8.82,8.82c.21.21.19.37.02.59l-5.05,5.05c-.19.16-.36.3-.59.09l-8.84-8.84c-.22-.28-.18-.35.04-.61.18-.21.48-.5.76-.26l8.07,8.06c.34.28.58,0,.82-.25.6-.6,1.18-1.29,1.76-1.92.4-.42.88-.86,1.25-1.29.11-.13.41-.43.1-.52-.44-.13-.57.65-.96.43-.09-.05-.48-.44-.53-.53-.24-.46.47-.53.37-.97-.03-.11-.57-.66-.67-.69-.07-.02-.18-.03-.25-.02-.33.04-.87.92-1.15.98-.23.05-.52-.25-.66-.43-.1-.13-.16-.21-.08-.39.11-.27.82-.7.96-1.05.11-.28-.33-.68-.53-.84-.59-.47-.71.49-1.19.24-.08-.04-.47-.46-.51-.55-.18-.34.48-.57.41-.93-.04-.19-.6-.75-.81-.75-.37,0-.94.99-1.3,1.06-.21.04-.44-.17-.58-.31-.25-.27-.31-.37-.06-.66.2-.23.87-.7.92-.98.05-.26-.59-.89-.82-.91-.32-.03-.5.53-.83.38-.06-.02-.52-.48-.56-.54-.2-.31.21-.59.41-.8.18-.18.5-.5.68-.64.05-.04.18-.14.24-.15Z"/>
</svg>