<?xml version="1.0" encoding="UTF-8"?>
<svg id="Layer_1" data-name="Layer 1" xmlns="http://www.w3.org/2000/svg" viewBox="0 0 32 32">
  <path d="M28.15,2.5c.24-.07.38.1.55.24.14.12.57.57.67.71.19.29.03.47-.12.72-.64,1.09-1.49,2.14-2.15,3.23-.29.32-.76.33-1.15.49s-.71.4-1.02.66l-6.85,6.93c-.17.37.39.68.59.89.11.12.5.52.55.64.07.16.05.28-.02.43-.06.13-.57.65-.69.72-.23.12-.51.01-.7.18-.12.11-.38.73-.51.94-.17.27-.4.49-.59.74-2.56,2.49-4.99,5.11-7.55,7.59-.98.94-1.81,1.93-3.28,2.02-3.12.2-4.45-3.27-2.52-5.53l8.7-8.78c.48-.46,1.05-.77,1.62-1.08.22-.32.09-.56.36-.9.21-.27.59-.67.96-.54.39.14.9.99,1.25,1.15.16.07.27.05.4-.06l7.08-7.11c.46-.48.39-1.16.71-1.7,1.13-.99,2.49-1.71,3.73-2.57Z"/>
  <path d="M6.22.82c3.4-.33,6.24,2.8,6.04,6.11-.03.52-.28,1.1-.3,1.53s.4.7.67.97c.62.62,1.24,1.23,1.85,1.86.02.11-.43.28-.53.34-.35.22-.81.67-1.07.99-.22.28-.31.56-.59.82-.11.1-1.01.77-1.09.78-.1.03-.13,0-.21-.06-.7-.57-1.34-1.51-2.04-2.04-.42-.32-.84-.05-1.3.04-3.57.69-7.27-2.27-6.82-6.02.09-.76.45-.46.83-.13.74.66,1.46,1.61,2.21,2.21.23.18.4.23.7.2.85-.28,1.83-.37,2.67-.65.3-.1.45-.25.55-.56.21-.66.45-1.72.57-2.4.07-.37.14-.6-.11-.92-.69-.88-1.81-1.66-2.53-2.54-.27-.42.2-.5.52-.54Z"/>
  <path d="M31.09,26.29c-.15.14-.38,0-.5-.11-.77-.59-1.51-1.61-2.27-2.27-.47-.4-.51-.38-1.11-.27-.7.13-1.74.36-2.4.57-.26.08-.42.21-.52.47-.16.85-.46,1.71-.61,2.56-.08.44-.09.6.2.96.64.8,1.72,1.51,2.37,2.33.15.19.3.48-.02.59-.28.1-.97.08-1.28.06-3.42-.31-5.68-3.59-5.04-6.91.09-.49.36-.78-.01-1.23-.55-.67-1.37-1.28-1.95-1.95-.09-.1-.1-.24-.06-.36.26-.31.48-.79.76-1.07.23-.22.59-.39.86-.59.39-.3.63-.6.9-1.01.1-.15.2-.57.42-.42l2.15,2.16c.44.47.97.13,1.49.04,3.18-.6,6.3,1.63,6.71,4.85.04.29.11,1.42-.08,1.61Z"/>
</svg>