<?xml version="1.0" encoding="UTF-8"?>
<svg id="Layer_1" data-name="Layer 1" xmlns="http://www.w3.org/2000/svg" viewBox="0 0 32 32">
  <defs>
    <style>
      .cls-1 {
        fill: none;
        stroke: #000;
        stroke-linecap: round;
        stroke-linejoin: round;
        stroke-width: 2px;
      }
    </style>
  </defs>
  <path class="cls-1" d="M3.56,10.18l10.31,7.22c.83.58,1.25.88,1.71.99.4.1.82.1,1.22,0,.45-.11.87-.41,1.71-.99l10.31-7.22M9.62,26.59h13.13c2.12,0,3.18,0,3.99-.41.71-.36,1.29-.94,1.66-1.66.41-.81.41-1.87.41-3.99v-8.08c0-2.12,0-3.18-.41-3.99-.36-.71-.94-1.29-1.66-1.66-.81-.41-1.87-.41-3.99-.41h-13.13c-2.12,0-3.18,0-3.99.41-.71.36-1.29.94-1.66,1.66-.41.81-.41,1.87-.41,3.99v8.08c0,2.12,0,3.18.41,3.99.36.71.94,1.29,1.66,1.66.81.41,1.87.41,3.99.41Z"/>
</svg>