<?xml version="1.0" encoding="UTF-8"?>
<svg id="Layer_1" data-name="Layer 1" xmlns="http://www.w3.org/2000/svg" viewBox="0 0 32 32">
  <defs>
    <style>
      .cls-1 {
        fill: none;
        stroke: #000;
        stroke-linecap: round;
        stroke-linejoin: round;
        stroke-width: 2px;
      }
    </style>
  </defs>
  <path class="cls-1" d="M14.01,18.37l14-14M14.18,18.81l3.5,9.01c.31.79.46,1.19.69,1.31.19.1.42.1.62,0,.22-.12.38-.51.69-1.31L28.46,5.3c.28-.72.42-1.07.34-1.3-.07-.2-.22-.35-.42-.42-.23-.08-.59.06-1.3.34L4.56,12.71c-.79.31-1.19.46-1.31.69-.1.19-.1.42,0,.62.12.22.51.38,1.31.69l9.01,3.5c.16.06.24.09.31.14.06.04.11.1.16.16.05.07.08.15.14.31Z"/>
</svg>