<?xml version="1.0" encoding="UTF-8"?>
<svg id="Layer_1" data-name="Layer 1" xmlns="http://www.w3.org/2000/svg" viewBox="0 0 32 32">
  <defs>
    <style>
      .cls-1 {
        fill: none;
        stroke: #000;
        stroke-linecap: round;
        stroke-linejoin: round;
        stroke-width: 2px;
      }
    </style>
  </defs>
  <path class="cls-1" d="M20.67,7.33l4-4M24.67,3.33l4,4M24.67,3.33v8M16,4.67h-6.27c-2.24,0-3.36,0-4.22.44-.75.38-1.36,1-1.75,1.75-.44.86-.44,1.98-.44,4.22v11.2c0,2.24,0,3.36.44,4.22.38.75,1,1.36,1.75,1.75.86.44,1.98.44,4.22.44h12.27c1.24,0,1.86,0,2.37-.14,1.38-.37,2.46-1.45,2.83-2.83.14-.51.14-1.13.14-2.37M13.33,12c0,1.47-1.19,2.67-2.67,2.67s-2.67-1.19-2.67-2.67,1.19-2.67,2.67-2.67,2.67,1.19,2.67,2.67ZM19.32,16.56l-11.28,10.25c-.63.58-.95.87-.98,1.11-.02.22.06.43.22.58.19.17.62.17,1.47.17h12.52c1.92,0,2.88,0,3.63-.32.95-.4,1.7-1.16,2.1-2.1.32-.75.32-1.71.32-3.63,0-.65,0-.97-.07-1.27-.09-.38-.26-.73-.5-1.04-.19-.24-.44-.44-.95-.85l-3.73-2.98c-.5-.4-.76-.61-1.03-.68-.24-.06-.5-.05-.74.02-.27.09-.51.31-.99.74Z"/>
</svg>